<?xml version="1.0" encoding="utf-8"?>
<svg version="1.1" xmlns:xlink="http://www.w3.org/1999/xlink" width="12px" height="12px" viewBox="237 210  12 12" xmlns="http://www.w3.org/2000/svg">
  <path d="M 243 210  C 246.36 210  249 212.64  249 216  C 249 219.36  246.36 222  243 222  C 239.64 222  237 219.36  237 216  C 237 212.64  239.64 210  243 210  Z " fill-rule="nonzero" fill="#ffffff" stroke="none" />
  <path d="M 243 210.5  C 246.08 210.5  248.5 212.92  248.5 216  C 248.5 219.08  246.08 221.5  243 221.5  C 239.92 221.5  237.5 219.08  237.5 216  C 237.5 212.92  239.92 210.5  243 210.5  Z " stroke-width="1" stroke="#797979" fill="none" />
  <path d="M 243 219  C 241.32 219  240 217.68  240 216  C 240 214.32  241.32 213  243 213  C 244.68 213  246 214.32  246 216  C 246 217.68  244.68 219  243 219  " fill-rule="nonzero" fill="#797979" stroke="none" />
</svg>