<?xml version="1.0" encoding="utf-8"?>
<svg version="1.1" xmlns:xlink="http://www.w3.org/1999/xlink" width="12px" height="12px" viewBox="237 414  12 12" xmlns="http://www.w3.org/2000/svg">
  <path d="M 243 414  C 246.36 414  249 416.64  249 420  C 249 423.36  246.36 426  243 426  C 239.64 426  237 423.36  237 420  C 237 416.64  239.64 414  243 414  Z " fill-rule="nonzero" fill="#f0f0f0" stroke="none" />
  <path d="M 243 414.5  C 246.08 414.5  248.5 416.92  248.5 420  C 248.5 423.08  246.08 425.5  243 425.5  C 239.92 425.5  237.5 423.08  237.5 420  C 237.5 416.92  239.92 414.5  243 414.5  Z " stroke-width="1" stroke="#797979" fill="none" />
  <path d="M 243 423  C 241.32 423  240 421.68  240 420  C 240 418.32  241.32 417  243 417  C 244.68 417  246 418.32  246 420  C 246 421.68  244.68 423  243 423  " fill-rule="nonzero" fill="#797979" stroke="none" />
</svg>