<?xml version="1.0" encoding="utf-8"?>
<svg version="1.1" xmlns:xlink="http://www.w3.org/1999/xlink" width="12px" height="12px" viewBox="103 414  12 12" xmlns="http://www.w3.org/2000/svg">
  <path d="M 109 414  C 112.36 414  115 416.64  115 420  C 115 423.36  112.36 426  109 426  C 105.64 426  103 423.36  103 420  C 103 416.64  105.64 414  109 414  Z " fill-rule="nonzero" fill="#f0f0f0" stroke="none" />
  <path d="M 109 414.5  C 112.08 414.5  114.5 416.92  114.5 420  C 114.5 423.08  112.08 425.5  109 425.5  C 105.92 425.5  103.5 423.08  103.5 420  C 103.5 416.92  105.92 414.5  109 414.5  Z " stroke-width="1" stroke="#797979" fill="none" />
  <path d="M 109 423  C 107.32 423  106 421.68  106 420  C 106 418.32  107.32 417  109 417  C 110.68 417  112 418.32  112 420  C 112 421.68  110.68 423  109 423  " fill-rule="nonzero" fill="#797979" stroke="none" />
</svg>