<?xml version="1.0" encoding="utf-8"?>
<svg version="1.1" xmlns:xlink="http://www.w3.org/1999/xlink" width="20px" height="21px" xmlns="http://www.w3.org/2000/svg">
  <g transform="matrix(1 0 0 1 -458 -255 )">
    <path d="M 1.53846153846155 16.125  L 1.53846153846155 19.5  L 5 19.5  L 5 16.125  L 1.53846153846155 16.125  Z M 5.76923076923083 16.125  L 5.76923076923083 19.5  L 9.61538461538458 19.5  L 9.61538461538458 16.125  L 5.76923076923083 16.125  Z M 1.53846153846155 11.625  L 1.53846153846155 15.375  L 5 15.375  L 5 11.625  L 1.53846153846155 11.625  Z M 5.76923076923083 11.625  L 5.76923076923083 15.375  L 9.61538461538458 15.375  L 9.61538461538458 11.625  L 5.76923076923083 11.625  Z M 1.53846153846155 7.5  L 1.53846153846155 10.875  L 5 10.875  L 5 7.5  L 1.53846153846155 7.5  Z M 10.3846153846154 16.125  L 10.3846153846154 19.5  L 14.2307692307692 19.5  L 14.2307692307692 16.125  L 10.3846153846154 16.125  Z M 5.76923076923083 7.5  L 5.76923076923083 10.875  L 9.61538461538458 10.875  L 9.61538461538458 7.5  L 5.76923076923083 7.5  Z M 15 16.125  L 15 19.5  L 18.4615384615385 19.5  L 18.4615384615385 16.125  L 15 16.125  Z M 10.3846153846154 11.625  L 10.3846153846154 15.375  L 14.2307692307692 15.375  L 14.2307692307692 11.625  L 10.3846153846154 11.625  Z M 6.03966346153845 5.513671875  C 6.11578525641022 5.439453125  6.15384615384613 5.3515625  6.15384615384613 5.25  L 6.15384615384613 1.875  C 6.15384615384613 1.7734375  6.11578525641022 1.685546875  6.03966346153845 1.611328125  C 5.96354166666669 1.537109375  5.8733974358974 1.5  5.76923076923083 1.5  L 5 1.5  C 4.89583333333331 1.5  4.80568910256414 1.537109375  4.72956730769238 1.611328125  C 4.6534455128205 1.685546875  4.61538461538458 1.7734375  4.61538461538458 1.875  L 4.61538461538458 5.25  C 4.61538461538458 5.3515625  4.6534455128205 5.439453125  4.72956730769238 5.513671875  C 4.80568910256414 5.587890625  4.89583333333331 5.625  5 5.625  L 5.76923076923083 5.625  C 5.8733974358974 5.625  5.96354166666669 5.587890625  6.03966346153845 5.513671875  Z M 15 11.625  L 15 15.375  L 18.4615384615385 15.375  L 18.4615384615385 11.625  L 15 11.625  Z M 10.3846153846154 7.5  L 10.3846153846154 10.875  L 14.2307692307692 10.875  L 14.2307692307692 7.5  L 10.3846153846154 7.5  Z M 15 7.5  L 15 10.875  L 18.4615384615385 10.875  L 18.4615384615385 7.5  L 15 7.5  Z M 15.2704326923076 5.513671875  C 15.3465544871796 5.439453125  15.3846153846154 5.3515625  15.3846153846154 5.25  L 15.3846153846154 1.875  C 15.3846153846154 1.7734375  15.3465544871796 1.685546875  15.2704326923076 1.611328125  C 15.1943108974359 1.537109375  15.1041666666667 1.5  15 1.5  L 14.2307692307692 1.5  C 14.1266025641026 1.5  14.0364583333333 1.537109375  13.9603365384615 1.611328125  C 13.8842147435898 1.685546875  13.8461538461539 1.7734375  13.8461538461539 1.875  L 13.8461538461539 5.25  C 13.8461538461539 5.3515625  13.8842147435898 5.439453125  13.9603365384615 5.513671875  C 14.0364583333333 5.587890625  14.1266025641026 5.625  14.2307692307692 5.625  L 15 5.625  C 15.1041666666667 5.625  15.1943108974359 5.587890625  15.2704326923076 5.513671875  Z M 19.5432692307692 3.4453125  C 19.8477564102565 3.7421875  20 4.09375  20 4.5  L 20 19.5  C 20 19.90625  19.8477564102565 20.2578125  19.5432692307692 20.5546875  C 19.238782051282 20.8515625  18.8782051282052 21  18.4615384615385 21  L 1.53846153846155 21  C 1.1217948717948 21  0.761217948718013 20.8515625  0.45673076923083 20.5546875  C 0.152243589743648 20.2578125  0 19.90625  0 19.5  L 0 4.5  C 0 4.09375  0.152243589743648 3.7421875  0.45673076923083 3.4453125  C 0.761217948718013 3.1484375  1.1217948717948 3  1.53846153846155 3  L 3.07692307692304 3  L 3.07692307692304 1.875  C 3.07692307692304 1.359375  3.26522435897436 0.91796875  3.64182692307696 0.55078125  C 4.0184294871795 0.18359375  4.47115384615387 0  5 0  L 5.76923076923083 0  C 6.29807692307696 0  6.75080128205127 0.18359375  7.12740384615387 0.55078125  C 7.50400641025635 0.91796875  7.69230769230762 1.359375  7.69230769230762 1.875  L 7.69230769230762 3  L 12.3076923076924 3  L 12.3076923076924 1.875  C 12.3076923076924 1.359375  12.4959935897436 0.91796875  12.8725961538461 0.55078125  C 13.2491987179487 0.18359375  13.701923076923 0  14.2307692307692 0  L 15 0  C 15.5288461538461 0  15.9815705128204 0.18359375  16.358173076923 0.55078125  C 16.7347756410256 0.91796875  16.923076923077 1.359375  16.923076923077 1.875  L 16.923076923077 3  L 18.4615384615385 3  C 18.8782051282052 3  19.238782051282 3.1484375  19.5432692307692 3.4453125  Z " fill-rule="nonzero" fill="#999999" stroke="none" transform="matrix(1 0 0 1 458 255 )" />
  </g>
</svg>