<?xml version="1.0" encoding="utf-8"?>
<svg version="1.1" xmlns:xlink="http://www.w3.org/1999/xlink" width="300px" height="94px" xmlns="http://www.w3.org/2000/svg">
  <g transform="matrix(1 0 0 1 -578 -399 )">
    <path d="M 578 399  L 878 399  L 878 493  L 578 493  L 578 399  " fill-rule="nonzero" fill="#cccccc" stroke="none" />
    <path d="M 585 406  L 871 406  L 871 486  L 585 486  L 585 406  " fill-rule="nonzero" fill="#ffffff" stroke="none" />
    <path d="M 741.05 427.2  C 737.102 427.2  734 424.098  734 420.15  C 734 416.202  737.102 413.1  741.05 413.1  C 744.998 413.1  748.1 416.202  748.1 420.15  C 748.1 424.098  744.998 427.2  741.05 427.2  " fill-rule="nonzero" fill="#cccccc" stroke="none" />
    <path d="M 588 484  L 588 442.75  L 658.25 424  L 756.6 469.9  L 812.8 435.25  L 869 469.9  L 869 484  L 588 484  " fill-rule="nonzero" fill="#169bd5" stroke="none" />
  </g>
</svg>