<?xml version="1.0" encoding="utf-8"?>
<svg version="1.1" xmlns:xlink="http://www.w3.org/1999/xlink" width="12px" height="12px" viewBox="127 137  12 12" xmlns="http://www.w3.org/2000/svg">
  <path d="M 133 137  C 136.36 137  139 139.64  139 143  C 139 146.36  136.36 149  133 149  C 129.64 149  127 146.36  127 143  C 127 139.64  129.64 137  133 137  Z " fill-rule="nonzero" fill="#ffffff" stroke="none" />
  <path d="M 133 137.5  C 136.08 137.5  138.5 139.92  138.5 143  C 138.5 146.08  136.08 148.5  133 148.5  C 129.92 148.5  127.5 146.08  127.5 143  C 127.5 139.92  129.92 137.5  133 137.5  Z " stroke-width="1" stroke="#797979" fill="none" />
  <path d="M 133 146  C 131.32 146  130 144.68  130 143  C 130 141.32  131.32 140  133 140  C 134.68 140  136 141.32  136 143  C 136 144.68  134.68 146  133 146  " fill-rule="nonzero" fill="#797979" stroke="none" />
</svg>