<?xml version="1.0" encoding="utf-8"?>
<svg version="1.1" xmlns:xlink="http://www.w3.org/1999/xlink" width="12px" height="12px" viewBox="232 110  12 12" xmlns="http://www.w3.org/2000/svg">
  <path d="M 238 110  C 241.36 110  244 112.64  244 116  C 244 119.36  241.36 122  238 122  C 234.64 122  232 119.36  232 116  C 232 112.64  234.64 110  238 110  Z " fill-rule="nonzero" fill="#ffffff" stroke="none" />
  <path d="M 238 110.5  C 241.08 110.5  243.5 112.92  243.5 116  C 243.5 119.08  241.08 121.5  238 121.5  C 234.92 121.5  232.5 119.08  232.5 116  C 232.5 112.92  234.92 110.5  238 110.5  Z " stroke-width="1" stroke="#797979" fill="none" />
  <path d="M 238 119  C 236.32 119  235 117.68  235 116  C 235 114.32  236.32 113  238 113  C 239.68 113  241 114.32  241 116  C 241 117.68  239.68 119  238 119  " fill-rule="nonzero" fill="#797979" stroke="none" />
</svg>