<?xml version="1.0" encoding="utf-8"?>
<svg version="1.1" xmlns:xlink="http://www.w3.org/1999/xlink" width="12px" height="12px" viewBox="127 78  12 12" xmlns="http://www.w3.org/2000/svg">
  <path d="M 133 78  C 136.36 78  139 80.64  139 84  C 139 87.36  136.36 90  133 90  C 129.64 90  127 87.36  127 84  C 127 80.64  129.64 78  133 78  Z " fill-rule="nonzero" fill="#f0f0f0" stroke="none" />
  <path d="M 133 78.5  C 136.08 78.5  138.5 80.92  138.5 84  C 138.5 87.08  136.08 89.5  133 89.5  C 129.92 89.5  127.5 87.08  127.5 84  C 127.5 80.92  129.92 78.5  133 78.5  Z " stroke-width="1" stroke="#797979" fill="none" />
  <path d="M 133 87  C 131.32 87  130 85.68  130 84  C 130 82.32  131.32 81  133 81  C 134.68 81  136 82.32  136 84  C 136 85.68  134.68 87  133 87  " fill-rule="nonzero" fill="#797979" stroke="none" />
</svg>