<?xml version="1.0" encoding="utf-8"?>
<svg version="1.1" xmlns:xlink="http://www.w3.org/1999/xlink" width="12px" height="12px" viewBox="127 170  12 12" xmlns="http://www.w3.org/2000/svg">
  <path d="M 133 170  C 136.36 170  139 172.64  139 176  C 139 179.36  136.36 182  133 182  C 129.64 182  127 179.36  127 176  C 127 172.64  129.64 170  133 170  Z " fill-rule="nonzero" fill="#f0f0f0" stroke="none" />
  <path d="M 133 170.5  C 136.08 170.5  138.5 172.92  138.5 176  C 138.5 179.08  136.08 181.5  133 181.5  C 129.92 181.5  127.5 179.08  127.5 176  C 127.5 172.92  129.92 170.5  133 170.5  Z " stroke-width="1" stroke="#797979" fill="none" />
  <path d="M 133 179  C 131.32 179  130 177.68  130 176  C 130 174.32  131.32 173  133 173  C 134.68 173  136 174.32  136 176  C 136 177.68  134.68 179  133 179  " fill-rule="nonzero" fill="#797979" stroke="none" />
</svg>