<?xml version="1.0" encoding="utf-8"?>
<svg version="1.1" xmlns:xlink="http://www.w3.org/1999/xlink" width="12px" height="12px" viewBox="127 197  12 12" xmlns="http://www.w3.org/2000/svg">
  <path d="M 133 197  C 136.36 197  139 199.64  139 203  C 139 206.36  136.36 209  133 209  C 129.64 209  127 206.36  127 203  C 127 199.64  129.64 197  133 197  Z " fill-rule="nonzero" fill="#ffffff" stroke="none" />
  <path d="M 133 197.5  C 136.08 197.5  138.5 199.92  138.5 203  C 138.5 206.08  136.08 208.5  133 208.5  C 129.92 208.5  127.5 206.08  127.5 203  C 127.5 199.92  129.92 197.5  133 197.5  Z " stroke-width="1" stroke="#797979" fill="none" />
  <path d="M 133 206  C 131.32 206  130 204.68  130 203  C 130 201.32  131.32 200  133 200  C 134.68 200  136 201.32  136 203  C 136 204.68  134.68 206  133 206  " fill-rule="nonzero" fill="#797979" stroke="none" />
</svg>