<?xml version="1.0" encoding="utf-8"?>
<svg version="1.1" xmlns:xlink="http://www.w3.org/1999/xlink" width="12px" height="12px" viewBox="232 197  12 12" xmlns="http://www.w3.org/2000/svg">
  <path d="M 238 197  C 241.36 197  244 199.64  244 203  C 244 206.36  241.36 209  238 209  C 234.64 209  232 206.36  232 203  C 232 199.64  234.64 197  238 197  Z " fill-rule="nonzero" fill="#f0f0f0" stroke="none" />
  <path d="M 238 197.5  C 241.08 197.5  243.5 199.92  243.5 203  C 243.5 206.08  241.08 208.5  238 208.5  C 234.92 208.5  232.5 206.08  232.5 203  C 232.5 199.92  234.92 197.5  238 197.5  Z " stroke-width="1" stroke="#797979" fill="none" />
  <path d="M 238 206  C 236.32 206  235 204.68  235 203  C 235 201.32  236.32 200  238 200  C 239.68 200  241 201.32  241 203  C 241 204.68  239.68 206  238 206  " fill-rule="nonzero" fill="#797979" stroke="none" />
</svg>