<?xml version="1.0" encoding="utf-8"?>
<svg version="1.1" xmlns:xlink="http://www.w3.org/1999/xlink" width="12px" height="12px" viewBox="232 170  12 12" xmlns="http://www.w3.org/2000/svg">
  <path d="M 238 170  C 241.36 170  244 172.64  244 176  C 244 179.36  241.36 182  238 182  C 234.64 182  232 179.36  232 176  C 232 172.64  234.64 170  238 170  Z " fill-rule="nonzero" fill="#f0f0f0" stroke="none" />
  <path d="M 238 170.5  C 241.08 170.5  243.5 172.92  243.5 176  C 243.5 179.08  241.08 181.5  238 181.5  C 234.92 181.5  232.5 179.08  232.5 176  C 232.5 172.92  234.92 170.5  238 170.5  Z " stroke-width="1" stroke="#797979" fill="none" />
  <path d="M 238 179  C 236.32 179  235 177.68  235 176  C 235 174.32  236.32 173  238 173  C 239.68 173  241 174.32  241 176  C 241 177.68  239.68 179  238 179  " fill-rule="nonzero" fill="#797979" stroke="none" />
</svg>