<?xml version="1.0" encoding="utf-8"?>
<svg version="1.1" xmlns:xlink="http://www.w3.org/1999/xlink" width="27px" height="22px" xmlns="http://www.w3.org/2000/svg">
  <g transform="matrix(1 0 0 1 -168 -65 )">
    <path d="M 25.9290865384615 5.03125  C 26.6430288461538 5.71875  27 6.54166666666666  27 7.5  L 27 18.5  C 27 19.4583333333333  26.6430288461538 20.28125  25.9290865384615 20.96875  C 25.2151442307692 21.65625  24.3605769230769 22  23.3653846153846 22  L 3.63461538461538 22  C 2.63942307692308 22  1.78485576923077 21.65625  1.07091346153846 20.96875  C 0.356971153846154 20.28125  0 19.4583333333333  0 18.5  L 0 3.5  C 0 2.54166666666666  0.356971153846154 1.71875  1.07091346153846 1.03125  C 1.78485576923077 0.34375  2.63942307692308 0  3.63461538461538 0  L 8.82692307692308 0  C 9.82211538461539 0  10.6766826923077 0.34375  11.390625 1.03125  C 12.1045673076923 1.71875  12.4615384615385 2.54166666666666  12.4615384615385 3.5  L 12.4615384615385 4  L 23.3653846153846 4  C 24.3605769230769 4  25.2151442307692 4.34375  25.9290865384615 5.03125  Z " fill-rule="nonzero" fill="#333333" stroke="none" transform="matrix(1 0 0 1 168 65 )" />
  </g>
</svg>