<?xml version="1.0" encoding="utf-8"?>
<svg version="1.1" xmlns:xlink="http://www.w3.org/1999/xlink" width="18px" height="17px" xmlns="http://www.w3.org/2000/svg">
  <g transform="matrix(1 0 0 1 -168 -308 )">
    <path d="M 14.6122159090909 7.8359375  C 14.6889204545455 7.90838068181818  14.7272727272727 8.00094696969697  14.7272727272727 8.11363636363636  L 14.7272727272727 8.88636363636364  C 14.7272727272727 8.99905303030303  14.6889204545455 9.09161931818182  14.6122159090909 9.1640625  C 14.5355113636364 9.23650568181818  14.4375 9.27272727272727  14.3181818181818 9.27272727272727  L 9.81818181818182 9.27272727272727  L 9.81818181818182 13.5227272727273  C 9.81818181818182 13.6354166666667  9.77982954545454 13.7279829545455  9.703125 13.8004261363636  C 9.62642045454546 13.8728693181818  9.52840909090909 13.9090909090909  9.40909090909091 13.9090909090909  L 8.59090909090909 13.9090909090909  C 8.47159090909091 13.9090909090909  8.37357954545454 13.8728693181818  8.296875 13.8004261363636  C 8.22017045454546 13.7279829545455  8.18181818181818 13.6354166666667  8.18181818181818 13.5227272727273  L 8.18181818181818 9.27272727272727  L 3.68181818181818 9.27272727272727  C 3.5625 9.27272727272727  3.46448863636364 9.23650568181818  3.38778409090909 9.1640625  C 3.31107954545455 9.09161931818182  3.27272727272727 8.99905303030303  3.27272727272727 8.88636363636364  L 3.27272727272727 8.11363636363636  C 3.27272727272727 8.00094696969697  3.31107954545455 7.90838068181818  3.38778409090909 7.8359375  C 3.46448863636364 7.76349431818182  3.5625 7.72727272727273  3.68181818181818 7.72727272727273  L 8.18181818181818 7.72727272727273  L 8.18181818181818 3.47727272727273  C 8.18181818181818 3.36458333333333  8.22017045454546 3.27201704545455  8.296875 3.19957386363636  C 8.37357954545454 3.12713068181818  8.47159090909091 3.09090909090909  8.59090909090909 3.09090909090909  L 9.40909090909091 3.09090909090909  C 9.52840909090909 3.09090909090909  9.62642045454546 3.12713068181818  9.703125 3.19957386363636  C 9.77982954545454 3.27201704545455  9.81818181818182 3.36458333333333  9.81818181818182 3.47727272727273  L 9.81818181818182 7.72727272727273  L 14.3181818181818 7.72727272727273  C 14.4375 7.72727272727273  14.5355113636364 7.76349431818182  14.6122159090909 7.8359375  Z M 15.7627840909091 14.8870738636364  C 16.1633522727273 14.508759469697  16.3636363636364 14.0539772727273  16.3636363636364 13.5227272727273  L 16.3636363636364 3.47727272727273  C 16.3636363636364 2.94602272727273  16.1633522727273 2.49124053030303  15.7627840909091 2.11292613636364  C 15.3622159090909 1.73461174242424  14.8806818181818 1.54545454545455  14.3181818181818 1.54545454545455  L 3.68181818181818 1.54545454545455  C 3.11931818181818 1.54545454545455  2.63778409090909 1.73461174242424  2.23721590909091 2.11292613636364  C 1.83664772727273 2.49124053030303  1.63636363636364 2.94602272727273  1.63636363636364 3.47727272727273  L 1.63636363636364 13.5227272727273  C 1.63636363636364 14.0539772727273  1.83664772727273 14.508759469697  2.23721590909091 14.8870738636364  C 2.63778409090909 15.2653882575758  3.11931818181818 15.4545454545455  3.68181818181818 15.4545454545455  L 14.3181818181818 15.4545454545455  C 14.8806818181818 15.4545454545455  15.3622159090909 15.2653882575758  15.7627840909091 14.8870738636364  Z M 16.9197443181818 1.02024147727273  C 17.6399147727273 1.70040246212121  18 2.51941287878788  18 3.47727272727273  L 18 13.5227272727273  C 18 14.4805871212121  17.6399147727273 15.2995975378788  16.9197443181818 15.9797585227273  C 16.1995738636364 16.6599195075758  15.3323863636364 17  14.3181818181818 17  L 3.68181818181818 17  C 2.66761363636364 17  1.80042613636364 16.6599195075758  1.08025568181818 15.9797585227273  C 0.360085227272727 15.2995975378788  0 14.4805871212121  0 13.5227272727273  L 0 3.47727272727273  C 0 2.51941287878788  0.360085227272727 1.70040246212121  1.08025568181818 1.02024147727273  C 1.80042613636364 0.340080492424241  2.66761363636364 0  3.68181818181818 0  L 14.3181818181818 0  C 15.3323863636364 0  16.1995738636364 0.340080492424241  16.9197443181818 1.02024147727273  Z " fill-rule="nonzero" fill="#333333" stroke="none" transform="matrix(1 0 0 1 168 308 )" />
  </g>
</svg>