<?xml version="1.0" encoding="utf-8"?>
<svg version="1.1" xmlns:xlink="http://www.w3.org/1999/xlink" width="15px" height="15px" xmlns="http://www.w3.org/2000/svg">
  <defs>
    <linearGradient gradientUnits="userSpaceOnUse" x1="-4.44089209850063E-16" y1="4.44089209850063E-16" x2="15" y2="15" id="LinearGradient2734">
      <stop id="Stop2735" stop-color="#00622f" offset="0" />
      <stop id="Stop2736" stop-color="#00622f" stop-opacity="0.8" offset="1" />
    </linearGradient>
  </defs>
  <g transform="matrix(1 0 0 1 -745 -172 )">
    <path d="M 14.6464646464647 11.2121212121212  C 14.8821548821549 11.4478114478114  15 11.7340067340067  15 12.0707070707071  C 15 12.4074074074074  14.8821548821549 12.6936026936027  14.6464646464647 12.9292929292929  L 12.929292929293 14.6464646464646  C 12.6936026936027 14.8821548821549  12.4074074074074 15  12.070707070707 15  C 11.7340067340067 15  11.4478114478114 14.8821548821549  11.2121212121212 14.6464646464646  L 7.5 10.9343434343434  L 3.78787878787875 14.6464646464646  C 3.55218855218857 14.8821548821549  3.2659932659933 15  2.92929292929296 15  C 2.59259259259261 15  2.30639730639734 14.8821548821549  2.07070707070704 14.6464646464646  L 0.353535353535335 12.9292929292929  C 0.11784511784515 12.6936026936027  0 12.4074074074074  0 12.0707070707071  C 0 11.7340067340067  0.11784511784515 11.4478114478114  0.353535353535335 11.2121212121212  L 4.06565656565658 7.5  L 0.353535353535335 3.78787878787879  C 0.11784511784515 3.55218855218855  0 3.26599326599327  0 2.92929292929293  C 0 2.59259259259259  0.11784511784515 2.3063973063973  0.353535353535335 2.07070707070707  L 2.07070707070704 0.353535353535353  C 2.30639730639734 0.117845117845118  2.59259259259261 0  2.92929292929296 0  C 3.2659932659933 0  3.55218855218857 0.117845117845118  3.78787878787875 0.353535353535353  L 7.5 4.06565656565657  L 11.2121212121212 0.353535353535353  C 11.4478114478114 0.117845117845118  11.7340067340067 0  12.070707070707 0  C 12.4074074074074 0  12.6936026936027 0.117845117845118  12.929292929293 0.353535353535353  L 14.6464646464647 2.07070707070707  C 14.8821548821549 2.3063973063973  15 2.59259259259259  15 2.92929292929293  C 15 3.26599326599327  14.8821548821549 3.55218855218855  14.6464646464647 3.78787878787879  L 10.9343434343434 7.5  L 14.6464646464647 11.2121212121212  Z " fill-rule="nonzero" fill="url(#LinearGradient2734)" stroke="none" transform="matrix(1 0 0 1 745 172 )" />
  </g>
</svg>