<?xml version="1.0" encoding="utf-8"?>
<svg version="1.1" xmlns:xlink="http://www.w3.org/1999/xlink" width="17px" height="17px" xmlns="http://www.w3.org/2000/svg">
  <defs>
    <linearGradient gradientUnits="userSpaceOnUse" x1="-8.88178419700125E-16" y1="8.88178419700125E-16" x2="17" y2="17" id="LinearGradient2710">
      <stop id="Stop2711" stop-color="#00622f" offset="0" />
      <stop id="Stop2712" stop-color="#00622f" stop-opacity="0.8" offset="1" />
    </linearGradient>
  </defs>
  <g transform="matrix(1 0 0 1 -258 -3 )">
    <path d="M 16.568359375 0.763671875  C 16.8561197916667 0.889105902777828  17 1.10677083333337  17 1.41666666666663  L 17 6.375  C 17 6.56684027777783  16.9299045138889 6.73285590277783  16.7897135416667 6.873046875  C 16.6495225694445 7.01323784722217  16.4835069444445 7.08333333333337  16.2916666666667 7.08333333333337  L 11.3333333333333 7.08333333333337  C 11.0234375 7.08333333333337  10.8057725694445 6.93576388888891  10.6803385416667 6.640625  C 10.5549045138889 6.35286458333337  10.6065538194445 6.09830729166663  10.8352864583333 5.876953125  L 12.3626302083333 4.349609375  C 11.2706163194445 3.33875868055554  9.98307291666669 2.83333333333337  8.5 2.83333333333337  C 7.73263888888891 2.83333333333337  7.00032552083331 2.98274739583337  6.30305989583331 3.28157552083337  C 5.60579427083331 3.58040364583337  5.00260416666669 3.984375  4.49348958333331 4.49348958333337  C 3.984375 5.00260416666663  3.58040364583331 5.60579427083337  3.28157552083331 6.30305989583337  C 2.98274739583331 7.00032552083337  2.83333333333331 7.73263888888891  2.83333333333331 8.5  C 2.83333333333331 9.26736111111109  2.98274739583331 9.99967447916663  3.28157552083331 10.6969401041666  C 3.58040364583331 11.3942057291666  3.984375 11.9973958333334  4.49348958333331 12.5065104166666  C 5.00260416666669 13.015625  5.60579427083331 13.4195963541666  6.30305989583331 13.7184244791666  C 7.00032552083331 14.0172526041666  7.73263888888891 14.1666666666666  8.5 14.1666666666666  C 9.37803819444446 14.1666666666666  10.2081163194445 13.9748263888889  10.990234375 13.5911458333334  C 11.7723524305555 13.2074652777778  12.4327256944445 12.6651475694445  12.9713541666667 11.9641927083334  C 13.0230034722222 11.8904079861111  13.1078559027778 11.8461371527778  13.2259114583333 11.8313802083334  C 13.3365885416667 11.8313802083334  13.4288194444445 11.8645833333334  13.5026041666667 11.9309895833334  L 15.0188802083333 13.4583333333334  C 15.0852864583333 13.5173611111111  15.1203342013889 13.5929904513889  15.1240234375 13.6852213541666  C 15.1277126736111 13.7774522569445  15.1000434027778 13.8604600694445  15.041015625 13.9342447916666  C 14.2367621527778 14.908203125  13.2628038194445 15.6626519097222  12.119140625 16.1975911458334  C 10.9754774305555 16.7325303819445  9.76909722222223 17  8.5 17  C 7.34895833333331 17  6.24956597222223 16.7749565972222  5.20182291666669 16.3248697916666  C 4.15407986111109 15.8747829861111  3.25021701388891 15.2697482638889  2.490234375 14.509765625  C 1.73025173611109 13.7497829861111  1.12521701388891 12.8459201388889  0.675130208333314 11.7981770833334  C 0.225043402777771 10.7504340277778  0 9.65104166666663  0 8.5  C 0 7.34895833333337  0.225043402777771 6.24956597222217  0.675130208333314 5.20182291666663  C 1.12521701388891 4.15407986111109  1.73025173611109 3.25021701388891  2.490234375 2.490234375  C 3.25021701388891 1.73025173611109  4.15407986111109 1.12521701388891  5.20182291666669 0.675130208333371  C 6.24956597222223 0.225043402777828  7.34895833333331 0  8.5 0  C 9.58463541666669 0  10.6342230902778 0.204752604166629  11.6487630208333 0.6142578125  C 12.6633029513889 1.02376302083337  13.5653211805555 1.60112847222217  14.3548177083333 2.34635416666663  L 15.7936197916667 0.918619791666629  C 16.0075954861111 0.689887152777828  16.2658420138889 0.638237847222172  16.568359375 0.763671875  Z " fill-rule="nonzero" fill="url(#LinearGradient2710)" stroke="none" transform="matrix(1 0 0 1 258 3 )" />
  </g>
</svg>