<?xml version="1.0" encoding="utf-8"?>
<svg version="1.1" xmlns:xlink="http://www.w3.org/1999/xlink" width="9px" height="16px" xmlns="http://www.w3.org/2000/svg">
  <defs>
    <linearGradient gradientUnits="userSpaceOnUse" x1="-1.828125" y1="1.79310344827586" x2="10.828125" y2="14.2068965517241" id="LinearGradient2713">
      <stop id="Stop2714" stop-color="#00622f" offset="0" />
      <stop id="Stop2715" stop-color="#00622f" stop-opacity="0.8" offset="1" />
    </linearGradient>
  </defs>
  <g transform="matrix(1 0 0 1 -204 -4 )">
    <path d="M 8.53639846743295 7.18903940886696  C 8.73052362707534 7.38403119868633  8.82758620689657 7.6149425287357  8.82758620689657 7.88177339901472  C 8.82758620689657 8.14860426929386  8.73052362707534 8.37951559934322  8.53639846743295 8.57450738916259  L 1.67049808429118 15.4710591133005  C 1.47637292464879 15.6660509031199  1.24648786717751 15.7635467980296  0.980842911877403 15.7635467980296  C 0.715197956577299 15.7635467980296  0.48531289910602 15.6660509031199  0.291187739463624 15.4710591133005  C 0.0970625798212268 15.2760673234811  0 15.0451559934319  0 14.7783251231526  L 0 0.985221674876925  C 0 0.718390804597675  0.0970625798212268 0.487479474548422  0.291187739463624 0.292487684729053  C 0.48531289910602 0.0974958949096845  0.715197956577299 0  0.980842911877403 0  C 1.24648786717751 0  1.47637292464879 0.0974958949096845  1.67049808429118 0.292487684729053  L 8.53639846743295 7.18903940886696  Z " fill-rule="nonzero" fill="url(#LinearGradient2713)" stroke="none" transform="matrix(1 0 0 1 204 4 )" />
  </g>
</svg>