<?xml version="1.0" encoding="utf-8"?>
<svg version="1.1" xmlns:xlink="http://www.w3.org/1999/xlink" width="9px" height="16px" xmlns="http://www.w3.org/2000/svg">
  <defs>
    <linearGradient gradientUnits="userSpaceOnUse" x1="-1.75" y1="1.75" x2="10.75" y2="14.25" id="LinearGradient2719">
      <stop id="Stop2720" stop-color="#00622f" offset="0" />
      <stop id="Stop2721" stop-color="#00622f" stop-opacity="0.8" offset="1" />
    </linearGradient>
  </defs>
  <g transform="matrix(1 0 0 1 -108 -4 )">
    <path d="M 8.53639846743295 7.18903940886691  C 8.7305236270754 7.38403119868628  8.82758620689651 7.61494252873564  8.82758620689651 7.88177339901466  C 8.82758620689651 8.1486042692938  8.7305236270754 8.37951559934316  8.53639846743295 8.57450738916253  L 1.67049808429124 15.4710591133004  C 1.47637292464879 15.6660509031198  1.24648786717751 15.7635467980294  0.980842911877403 15.7635467980294  C 0.715197956577299 15.7635467980294  0.48531289910602 15.6660509031198  0.291187739463567 15.4710591133004  C 0.0970625798212268 15.276067323481  0 15.0451559934318  0 14.7783251231525  L 0 0.985221674876918  C 0 0.71839080459767  0.0970625798212268 0.487479474548419  0.291187739463567 0.292487684729051  C 0.48531289910602 0.0974958949096838  0.715197956577299 0  0.980842911877403 0  C 1.24648786717751 0  1.47637292464879 0.0974958949096838  1.67049808429124 0.292487684729051  L 8.53639846743295 7.18903940886691  Z " fill-rule="nonzero" fill="url(#LinearGradient2719)" stroke="none" transform="matrix(1 0 0 1 108 4 )" />
  </g>
</svg>