<?xml version="1.0" encoding="utf-8"?>
<svg version="1.1" xmlns:xlink="http://www.w3.org/1999/xlink" width="29px" height="28px" xmlns="http://www.w3.org/2000/svg">
  <g transform="matrix(1 0 0 1 -232 -98 )">
    <path d="M 246.5 98  C 254.62 98  261 104.16  261 112  C 261 119.84  254.62 126  246.5 126  C 238.38 126  232 119.84  232 112  C 232 104.16  238.38 98  246.5 98  Z " fill-rule="nonzero" fill="#00622f" stroke="none" />
    <path d="M 246.5 98.5  C 254.34 98.5  260.5 104.44  260.5 112  C 260.5 119.56  254.34 125.5  246.5 125.5  C 238.66 125.5  232.5 119.56  232.5 112  C 232.5 104.44  238.66 98.5  246.5 98.5  Z " stroke-width="1" stroke="#797979" fill="none" />
  </g>
</svg>