<?xml version="1.0" encoding="utf-8"?>
<svg version="1.1" xmlns:xlink="http://www.w3.org/1999/xlink" width="70px" height="63px" xmlns="http://www.w3.org/2000/svg">
  <g transform="matrix(1 0 0 1 -36 -116 )">
    <path d="M 71 116  C 90.6 116  106 129.86  106 147.5  C 106 165.14  90.6 179  71 179  C 51.4 179  36 165.14  36 147.5  C 36 129.86  51.4 116  71 116  Z " fill-rule="nonzero" fill="#ffffff" stroke="none" />
    <path d="M 71 116.5  C 90.32 116.5  105.5 130.14  105.5 147.5  C 105.5 164.86  90.32 178.5  71 178.5  C 51.68 178.5  36.5 164.86  36.5 147.5  C 36.5 130.14  51.68 116.5  71 116.5  Z " stroke-width="1" stroke="#797979" fill="none" />
  </g>
</svg>