<?xml version="1.0" encoding="utf-8"?>
<svg version="1.1" xmlns:xlink="http://www.w3.org/1999/xlink" width="14px" height="15px" xmlns="http://www.w3.org/2000/svg">
  <g transform="matrix(1 0 0 1 -345 -240 )">
    <path d="M 13.6700336700337 11.2121212121212  C 13.8900112233446 11.4478114478115  14 11.7340067340068  14 12.0707070707071  C 14 12.4074074074074  13.8900112233446 12.6936026936027  13.6700336700337 12.9292929292929  L 12.0673400673401 14.6464646464646  C 11.8473625140292 14.8821548821549  11.5802469135803 15  11.2659932659933 15  C 10.9517396184063 15  10.6846240179574 14.8821548821549  10.4646464646465 14.6464646464646  L 7 10.9343434343434  L 3.53535353535352 14.6464646464646  C 3.31537598204261 14.8821548821549  3.04826038159371 15  2.7340067340067 15  C 2.41975308641975 15  2.15263748597079 14.8821548821549  1.93265993265993 14.6464646464646  L 0.329966329966339 12.9292929292929  C 0.109988776655428 12.6936026936027  0 12.4074074074074  0 12.0707070707071  C 0 11.7340067340068  0.109988776655428 11.4478114478115  0.329966329966339 11.2121212121212  L 3.79461279461282 7.5  L 0.329966329966339 3.78787878787878  C 0.109988776655428 3.55218855218854  0 3.26599326599325  0 2.92929292929293  C 0 2.59259259259258  0.109988776655428 2.30639730639729  0.329966329966339 2.07070707070707  L 1.93265993265993 0.353535353535364  C 2.15263748597079 0.117845117845121  2.41975308641975 0  2.7340067340067 0  C 3.04826038159371 0  3.31537598204261 0.117845117845121  3.53535353535352 0.353535353535364  L 7 4.06565656565655  L 10.4646464646465 0.353535353535364  C 10.6846240179574 0.117845117845121  10.9517396184063 0  11.2659932659933 0  C 11.5802469135803 0  11.8473625140292 0.117845117845121  12.0673400673401 0.353535353535364  L 13.6700336700337 2.07070707070707  C 13.8900112233446 2.30639730639729  14 2.59259259259258  14 2.92929292929293  C 14 3.26599326599325  13.8900112233446 3.55218855218854  13.6700336700337 3.78787878787878  L 10.2053872053872 7.5  L 13.6700336700337 11.2121212121212  Z " fill-rule="nonzero" fill="#000000" stroke="none" transform="matrix(1 0 0 1 345 240 )" />
  </g>
</svg>