<?xml version="1.0" encoding="utf-8"?>
<svg version="1.1" xmlns:xlink="http://www.w3.org/1999/xlink" width="12px" height="12px" viewBox="29 224  12 12" xmlns="http://www.w3.org/2000/svg">
  <path d="M 35 224  C 38.36 224  41 226.64  41 230  C 41 233.36  38.36 236  35 236  C 31.64 236  29 233.36  29 230  C 29 226.64  31.64 224  35 224  Z " fill-rule="nonzero" fill="#ffffff" stroke="none" />
  <path d="M 35 224.5  C 38.08 224.5  40.5 226.92  40.5 230  C 40.5 233.08  38.08 235.5  35 235.5  C 31.92 235.5  29.5 233.08  29.5 230  C 29.5 226.92  31.92 224.5  35 224.5  Z " stroke-width="1" stroke="#797979" fill="none" />
  <path d="M 35 233  C 33.32 233  32 231.68  32 230  C 32 228.32  33.32 227  35 227  C 36.68 227  38 228.32  38 230  C 38 231.68  36.68 233  35 233  " fill-rule="nonzero" fill="#797979" stroke="none" />
</svg>