<?xml version="1.0" encoding="utf-8"?>
<svg version="1.1" xmlns:xlink="http://www.w3.org/1999/xlink" width="12px" height="12px" viewBox="29 343  12 12" xmlns="http://www.w3.org/2000/svg">
  <path d="M 35 343  C 38.36 343  41 345.64  41 349  C 41 352.36  38.36 355  35 355  C 31.64 355  29 352.36  29 349  C 29 345.64  31.64 343  35 343  Z " fill-rule="nonzero" fill="#f0f0f0" stroke="none" />
  <path d="M 35 343.5  C 38.08 343.5  40.5 345.92  40.5 349  C 40.5 352.08  38.08 354.5  35 354.5  C 31.92 354.5  29.5 352.08  29.5 349  C 29.5 345.92  31.92 343.5  35 343.5  Z " stroke-width="1" stroke="#797979" fill="none" />
  <path d="M 35 352  C 33.32 352  32 350.68  32 349  C 32 347.32  33.32 346  35 346  C 36.68 346  38 347.32  38 349  C 38 350.68  36.68 352  35 352  " fill-rule="nonzero" fill="#797979" stroke="none" />
</svg>