<?xml version="1.0" encoding="utf-8"?>
<svg version="1.1" xmlns:xlink="http://www.w3.org/1999/xlink" width="12px" height="12px" viewBox="29 369  12 12" xmlns="http://www.w3.org/2000/svg">
  <path d="M 35 369  C 38.36 369  41 371.64  41 375  C 41 378.36  38.36 381  35 381  C 31.64 381  29 378.36  29 375  C 29 371.64  31.64 369  35 369  Z " fill-rule="nonzero" fill="#ffffff" stroke="none" />
  <path d="M 35 369.5  C 38.08 369.5  40.5 371.92  40.5 375  C 40.5 378.08  38.08 380.5  35 380.5  C 31.92 380.5  29.5 378.08  29.5 375  C 29.5 371.92  31.92 369.5  35 369.5  Z " stroke-width="1" stroke="#797979" fill="none" />
  <path d="M 35 378  C 33.32 378  32 376.68  32 375  C 32 373.32  33.32 372  35 372  C 36.68 372  38 373.32  38 375  C 38 376.68  36.68 378  35 378  " fill-rule="nonzero" fill="#797979" stroke="none" />
</svg>