<?xml version="1.0" encoding="utf-8"?>
<svg version="1.1" xmlns:xlink="http://www.w3.org/1999/xlink" width="12px" height="12px" viewBox="701 513  12 12" xmlns="http://www.w3.org/2000/svg">
  <path d="M 707 513  C 710.36 513  713 515.64  713 519  C 713 522.36  710.36 525  707 525  C 703.64 525  701 522.36  701 519  C 701 515.64  703.64 513  707 513  Z " fill-rule="nonzero" fill="#ffffff" stroke="none" />
  <path d="M 707 513.5  C 710.08 513.5  712.5 515.92  712.5 519  C 712.5 522.08  710.08 524.5  707 524.5  C 703.92 524.5  701.5 522.08  701.5 519  C 701.5 515.92  703.92 513.5  707 513.5  Z " stroke-width="1" stroke="#797979" fill="none" />
  <path d="M 707 522  C 705.32 522  704 520.68  704 519  C 704 517.32  705.32 516  707 516  C 708.68 516  710 517.32  710 519  C 710 520.68  708.68 522  707 522  " fill-rule="nonzero" fill="#797979" stroke="none" />
</svg>