<?xml version="1.0" encoding="utf-8"?>
<svg version="1.1" xmlns:xlink="http://www.w3.org/1999/xlink" width="12px" height="12px" viewBox="578 513  12 12" xmlns="http://www.w3.org/2000/svg">
  <path d="M 584 513  C 587.36 513  590 515.64  590 519  C 590 522.36  587.36 525  584 525  C 580.64 525  578 522.36  578 519  C 578 515.64  580.64 513  584 513  Z " fill-rule="nonzero" fill="#ffffff" stroke="none" />
  <path d="M 584 513.5  C 587.08 513.5  589.5 515.92  589.5 519  C 589.5 522.08  587.08 524.5  584 524.5  C 580.92 524.5  578.5 522.08  578.5 519  C 578.5 515.92  580.92 513.5  584 513.5  Z " stroke-width="1" stroke="#797979" fill="none" />
  <path d="M 584 522  C 582.32 522  581 520.68  581 519  C 581 517.32  582.32 516  584 516  C 585.68 516  587 517.32  587 519  C 587 520.68  585.68 522  584 522  " fill-rule="nonzero" fill="#797979" stroke="none" />
</svg>