<?xml version="1.0" encoding="utf-8"?>
<svg version="1.1" xmlns:xlink="http://www.w3.org/1999/xlink" width="12px" height="12px" viewBox="237 900  12 12" xmlns="http://www.w3.org/2000/svg">
  <path d="M 243 900  C 246.36 900  249 902.64  249 906  C 249 909.36  246.36 912  243 912  C 239.64 912  237 909.36  237 906  C 237 902.64  239.64 900  243 900  Z " fill-rule="nonzero" fill="#f0f0f0" stroke="none" />
  <path d="M 243 900.5  C 246.08 900.5  248.5 902.92  248.5 906  C 248.5 909.08  246.08 911.5  243 911.5  C 239.92 911.5  237.5 909.08  237.5 906  C 237.5 902.92  239.92 900.5  243 900.5  Z " stroke-width="1" stroke="#797979" fill="none" />
  <path d="M 243 909  C 241.32 909  240 907.68  240 906  C 240 904.32  241.32 903  243 903  C 244.68 903  246 904.32  246 906  C 246 907.68  244.68 909  243 909  " fill-rule="nonzero" fill="#797979" stroke="none" />
</svg>