<?xml version="1.0" encoding="utf-8"?>
<svg version="1.1" xmlns:xlink="http://www.w3.org/1999/xlink" width="12px" height="12px" viewBox="103 696  12 12" xmlns="http://www.w3.org/2000/svg">
  <path d="M 109 696  C 112.36 696  115 698.64  115 702  C 115 705.36  112.36 708  109 708  C 105.64 708  103 705.36  103 702  C 103 698.64  105.64 696  109 696  Z " fill-rule="nonzero" fill="#ffffff" stroke="none" />
  <path d="M 109 696.5  C 112.08 696.5  114.5 698.92  114.5 702  C 114.5 705.08  112.08 707.5  109 707.5  C 105.92 707.5  103.5 705.08  103.5 702  C 103.5 698.92  105.92 696.5  109 696.5  Z " stroke-width="1" stroke="#797979" fill="none" />
  <path d="M 109 705  C 107.32 705  106 703.68  106 702  C 106 700.32  107.32 699  109 699  C 110.68 699  112 700.32  112 702  C 112 703.68  110.68 705  109 705  " fill-rule="nonzero" fill="#797979" stroke="none" />
</svg>