<?xml version="1.0" encoding="utf-8"?>
<svg version="1.1" xmlns:xlink="http://www.w3.org/1999/xlink" width="133px" height="86px" xmlns="http://www.w3.org/2000/svg">
  <g transform="matrix(1 0 0 1 -578 -396 )">
    <path d="M 578 396  L 711 396  L 711 482  L 578 482  L 578 396  " fill-rule="nonzero" fill="#cccccc" stroke="none" />
    <path d="M 584 402  L 705 402  L 705 476  L 584 476  L 584 402  " fill-rule="nonzero" fill="#ffffff" stroke="none" />
    <path d="M 653.61 421.8  C 649.998 421.8  647.16 418.962  647.16 415.35  C 647.16 411.738  649.998 408.9  653.61 408.9  C 657.222 408.9  660.06 411.738  660.06 415.35  C 660.06 418.962  657.222 421.8  653.61 421.8  " fill-rule="nonzero" fill="#cccccc" stroke="none" />
    <path d="M 586 474  L 586 435.5  L 615.25 418  L 656.2 446.842105263158  L 679.6 428.5  L 703 446.842105263158  L 703 474  L 586 474  " fill-rule="nonzero" fill="#169bd5" stroke="none" />
  </g>
</svg>