<?xml version="1.0" encoding="utf-8"?>
<svg version="1.1" xmlns:xlink="http://www.w3.org/1999/xlink" width="12px" height="12px" viewBox="103 900  12 12" xmlns="http://www.w3.org/2000/svg">
  <path d="M 109 900  C 112.36 900  115 902.64  115 906  C 115 909.36  112.36 912  109 912  C 105.64 912  103 909.36  103 906  C 103 902.64  105.64 900  109 900  Z " fill-rule="nonzero" fill="#ffffff" stroke="none" />
  <path d="M 109 900.5  C 112.08 900.5  114.5 902.92  114.5 906  C 114.5 909.08  112.08 911.5  109 911.5  C 105.92 911.5  103.5 909.08  103.5 906  C 103.5 902.92  105.92 900.5  109 900.5  Z " stroke-width="1" stroke="#797979" fill="none" />
  <path d="M 109 909  C 107.32 909  106 907.68  106 906  C 106 904.32  107.32 903  109 903  C 110.68 903  112 904.32  112 906  C 112 907.68  110.68 909  109 909  " fill-rule="nonzero" fill="#797979" stroke="none" />
</svg>