<?xml version="1.0" encoding="utf-8"?>
<svg version="1.1" xmlns:xlink="http://www.w3.org/1999/xlink" width="12px" height="12px" viewBox="578 133  12 12" xmlns="http://www.w3.org/2000/svg">
  <path d="M 584 133  C 587.36 133  590 135.64  590 139  C 590 142.36  587.36 145  584 145  C 580.64 145  578 142.36  578 139  C 578 135.64  580.64 133  584 133  Z " fill-rule="nonzero" fill="#ffffff" stroke="none" />
  <path d="M 584 133.5  C 587.08 133.5  589.5 135.92  589.5 139  C 589.5 142.08  587.08 144.5  584 144.5  C 580.92 144.5  578.5 142.08  578.5 139  C 578.5 135.92  580.92 133.5  584 133.5  Z " stroke-width="1" stroke="#797979" fill="none" />
  <path d="M 584 142  C 582.32 142  581 140.68  581 139  C 581 137.32  582.32 136  584 136  C 585.68 136  587 137.32  587 139  C 587 140.68  585.68 142  584 142  " fill-rule="nonzero" fill="#797979" stroke="none" />
</svg>