<?xml version="1.0" encoding="utf-8"?>
<svg version="1.1" xmlns:xlink="http://www.w3.org/1999/xlink" width="12px" height="12px" viewBox="801 133  12 12" xmlns="http://www.w3.org/2000/svg">
  <path d="M 807 133  C 810.36 133  813 135.64  813 139  C 813 142.36  810.36 145  807 145  C 803.64 145  801 142.36  801 139  C 801 135.64  803.64 133  807 133  Z " fill-rule="nonzero" fill="#ffffff" stroke="none" />
  <path d="M 807 133.5  C 810.08 133.5  812.5 135.92  812.5 139  C 812.5 142.08  810.08 144.5  807 144.5  C 803.92 144.5  801.5 142.08  801.5 139  C 801.5 135.92  803.92 133.5  807 133.5  Z " stroke-width="1" stroke="#797979" fill="none" />
  <path d="M 807 142  C 805.32 142  804 140.68  804 139  C 804 137.32  805.32 136  807 136  C 808.68 136  810 137.32  810 139  C 810 140.68  808.68 142  807 142  " fill-rule="nonzero" fill="#797979" stroke="none" />
</svg>